<svg width="1000" height="500" xmlns="http://www.w3.org/2000/svg" version="1.1">
 <g>
  <title>Layer 1</title>
  <rect stroke="null" id="svg_31" fill="#1d4ed8" height="500" width="1000"/>
  <g y="16.79635" x="13.05765" transform="matrix(0.854782 0 0 0.854782 147.113 69.5212)" stroke="null" id="svg_282">
   <svg stroke="null" y="21.77466" x="-66.59532" id="svg_32" width="1000" height="398" preserveAspectRatio="xMidYMid meet" data-background-color="#1d4ed8" viewBox="0 0 396 158" xmlns:xlink="http://www.w3.org/1999/xlink" xmlns="http://www.w3.org/2000/svg">
    <g stroke="null" transform="matrix(1,0,0,1,0.2400000000000091,0.027038494846266303)" id="svg_1">
     <g stroke="null" id="svg_283">
      <svg stroke="null" id="svg_33" width="395.52" height="157.94592" viewBox="0 0 395.52 157.94592301030747">
       <g stroke="null" id="svg_284">
        <svg stroke="null" id="svg_34" width="395.52" height="157.94592" viewBox="0 0 538.78533627366 215.15712793831446">
         <g stroke="null" id="svg_20" transform="matrix(1,0,0,1,143.26533627366007,29.735898289593393)">
          <svg stroke="null" id="svg_35" width="395.52" height="155.68533" viewBox="0 0 395.52 155.68533135912767">
           <g stroke="null" id="svg_285">
            <svg stroke="null" id="svg_21" width="395.52" height="155.68533" viewBox="0 0 395.52 155.68533135912767">
             <g stroke="null" id="svg_286">
              <svg stroke="null" id="svg_36" width="395.52" height="155.68533" viewBox="0 0 395.52 155.68533135912767">
               <g stroke="null" id="svg_287">
                <svg stroke="null" id="svg_37" data-palette-color="#ffffff" height="155.68533" viewBox="-5 -44.26 156.64 62.269999999999996" width="395.52">
                 <path stroke="null" id="svg_25" data-fill-palette-color="primary" class="undefined-text-0" fill="#ffffff" d="m18.99,-27.29l0,5.59l-6.44,0l0,21.7l-7.45,0l0,-21.7l-4.1,0l0,-3.59l4.1,-2l0,-2.01q0,-4.66 2.3,-6.81q2.29,-2.15 7.35,-2.15l0,0q3.85,0 6.86,1.15l0,0l-1.91,5.47q-2.24,-0.71 -4.15,-0.71l0,0q-1.59,0 -2.29,0.94q-0.71,0.94 -0.71,2.41l0,0l0,1.71l6.44,0zm19.51,-0.52l0,0q1.51,0 2.51,0.22l0,0l-0.56,6.98q-0.9,-0.24 -2.2,-0.24l0,0q-3.56,0 -5.55,1.83q-1.99,1.83 -1.99,5.13l0,0l0,13.89l-7.45,0l0,-27.29l5.64,0l1.1,4.58l0.37,0q1.27,-2.29 3.43,-3.69q2.16,-1.41 4.7,-1.41zm7.15,-6.54l0,0q0,-3.64 4.05,-3.64l0,0q4.05,0 4.05,3.64l0,0q0,1.73 -1.01,2.7q-1.01,0.96 -3.04,0.96l0,0q-4.05,0 -4.05,-3.66zm7.76,7.06l0,27.29l-7.44,0l0,-27.29l7.44,0zm16.46,27.78l0,0q-4.81,0 -7.56,-3.74q-2.75,-3.73 -2.75,-10.35l0,0q0,-6.71 2.8,-10.46q2.79,-3.75 7.7,-3.75l0,0q5.15,0 7.86,4.01l0,0l0.25,0q-0.57,-3.06 -0.57,-5.45l0,0l0,-8.74l7.48,0l0,37.99l-5.72,0l-1.44,-3.54l-0.32,0q-2.53,4.03 -7.73,4.03zm2.61,-5.93l0,0q2.85,0 4.18,-1.66q1.34,-1.66 1.46,-5.64l0,0l0,-0.81q0,-4.39 -1.36,-6.3q-1.35,-1.9 -4.4,-1.9l0,0q-2.49,0 -3.87,2.11q-1.38,2.11 -1.38,6.14l0,0q0,4.03 1.39,6.04q1.39,2.02 3.98,2.02zm34.61,-21.85l9.53,0l0,3.78l-4.28,1.1q1.18,1.83 1.18,4.1l0,0q0,4.39 -3.07,6.85q-3.06,2.45 -8.51,2.45l0,0l-1.34,-0.07l-1.1,-0.12q-1.15,0.87 -1.15,1.95l0,0q0,1.61 4.11,1.61l0,0l4.63,0q4.5,0 6.85,1.93q2.36,1.93 2.36,5.66l0,0q0,4.79 -3.99,7.43q-3.99,2.63 -11.47,2.63l0,0q-5.71,0 -8.72,-1.99q-3.02,-1.99 -3.02,-5.58l0,0q0,-2.46 1.54,-4.12q1.54,-1.66 4.52,-2.37l0,0q-1.15,-0.49 -2.01,-1.6q-0.85,-1.11 -0.85,-2.36l0,0q0,-1.56 0.9,-2.6q0.91,-1.03 2.62,-2.03l0,0q-2.15,-0.93 -3.41,-2.98q-1.26,-2.05 -1.26,-4.84l0,0q0,-4.46 2.91,-6.91q2.9,-2.44 8.3,-2.44l0,0q1.15,0 2.72,0.21q1.58,0.21 2.01,0.31l0,0zm-11.54,31.15l0,0q0,1.54 1.47,2.41q1.48,0.88 4.14,0.88l0,0q4.01,0 6.28,-1.1q2.27,-1.09 2.27,-3l0,0q0,-1.54 -1.35,-2.12q-1.34,-0.59 -4.15,-0.59l0,0l-3.85,0q-2.05,0 -3.43,0.97q-1.38,0.96 -1.38,2.55zm2.71,-22.22l0,0q0,2.22 1.01,3.52q1.01,1.29 3.09,1.29l0,0q2.1,0 3.07,-1.29q0.98,-1.3 0.98,-3.52l0,0q0,-4.93 -4.05,-4.93l0,0q-4.1,0 -4.1,4.93zm29.78,18.16l-10.84,-27.09l8.15,0l5.16,15.35q0.65,2 0.9,4.74l0,0l0.14,0q0.27,-2.52 1.05,-4.74l0,0l5.06,-15.35l7.98,0l-11.55,30.78q-1.58,4.27 -4.52,6.4q-2.95,2.12 -6.88,2.12l0,0q-1.93,0 -3.78,-0.41l0,0l0,-5.91q1.34,0.32 2.93,0.32l0,0q1.98,0 3.45,-1.21q1.48,-1.21 2.31,-3.65l0,0l0.44,-1.35z"/>
                </svg>
               </g>
              </svg>
             </g>
            </svg>
           </g>
          </svg>
         </g>
         <g stroke="null" id="svg_288">
          <svg stroke="null" id="svg_38" width="113.11041" height="215.15713" viewBox="0 0 113.11040823099715 215.15712793831446">
           <g stroke="null" id="svg_289">
            <svg stroke="null" id="svg_29" data-fill-palette-color="accent" class="icon-icon-0" width="113.11041" height="215.15713" xml:space="preserve" enable-background="new 0 0 100 100" viewBox="25.752 3.5010000000000003 48.83800000000001 92.89899999999999" y="0" x="0" version="1.1" xmlns:xlink="http://www.w3.org/1999/xlink" xmlns="http://www.w3.org/2000/svg">
             <g stroke="null" id="svg_39" data-fill-palette-color="accent" fill="#ffffff">
              <path stroke="null" id="svg_40" data-fill-palette-color="accent" fill="#ffffff" d="m74.59,60.789l0,-50.087c0,-3.977 -3.225,-7.201 -7.201,-7.201l-34.436,0c-3.977,0 -7.201,3.225 -7.201,7.201l0,50.087l48.838,0zm-41.311,-16.869c0,-1.07 0.867,-1.938 1.938,-1.938s1.938,0.868 1.938,1.938l0,10.853c0,1.07 -0.868,1.938 -1.938,1.938s-1.938,-0.867 -1.938,-1.938l0,-10.853z"/>
              <path stroke="null" id="svg_41" data-fill-palette-color="accent" fill="#ffffff" d="m25.752,63.013l0,23.986c0,3.977 3.225,7.2 7.201,7.2l0.147,0c0.388,1.271 1.556,2.201 2.952,2.201l7.529,0c1.397,0 2.564,-0.931 2.952,-2.201l7.11,0c0.388,1.271 1.555,2.201 2.953,2.201l7.528,0c1.397,0 2.565,-0.931 2.952,-2.201l0.311,0c3.977,0 7.201,-3.224 7.201,-7.2l0,-23.986l-48.836,0zm11.403,17.031c0,1.07 -0.868,1.938 -1.938,1.938s-1.938,-0.867 -1.938,-1.938l0,-10.853c0,-1.07 0.867,-1.938 1.938,-1.938s1.938,0.868 1.938,1.938l0,10.853z"/>
             </g>
            </svg>
           </g>
          </svg>
         </g>
        </svg>
       </g>

      </svg>
     </g>
     <rect stroke="null" id="svg_42" visibility="hidden" fill="none" height="157.94592" width="395.52"/>
    </g>
   </svg>
  </g>
 </g>
</svg>