<svg width="500" height="500" xmlns="http://www.w3.org/2000/svg" version="1.1">
 <g>
  <title>Layer 1</title>
  <rect y="0" x="0" width="500" height="500" fill="#1d4ed8" id="svg_31" stroke="null"/>
  <g transform="matrix(1.75625 0 0 1.75625 401.449 207.98)" id="svg_46" stroke="null">
   <svg y="-81.37516" x="-138.17422" viewBox="0 0 113.11040823099715 215.15712793831446" height="215.15713" width="113.11041" id="svg_82" stroke="null">
    <g id="svg_83" stroke="null">
     <svg version="1.1" x="0" y="0" viewBox="25.752 3.5010000000000003 48.83800000000001 92.89899999999999" enable-background="new 0 0 100 100" xml:space="preserve" height="215.15713" width="113.11041" class="icon-icon-0" data-fill-palette-color="accent" id="svg_88" stroke="null" xmlns="http://www.w3.org/2000/svg" xmlns:xlink="http://www.w3.org/1999/xlink">
      <g fill="#ffffff" data-fill-palette-color="accent" id="svg_89" stroke="null">
       <path d="m74.59,60.789l0,-50.087c0,-3.977 -3.225,-7.201 -7.201,-7.201l-34.436,0c-3.977,0 -7.201,3.225 -7.201,7.201l0,50.087l48.838,0zm-41.311,-16.869c0,-1.07 0.867,-1.938 1.938,-1.938s1.938,0.868 1.938,1.938l0,10.853c0,1.07 -0.868,1.938 -1.938,1.938s-1.938,-0.867 -1.938,-1.938l0,-10.853z" fill="#ffffff" data-fill-palette-color="accent" id="svg_91" stroke="null"/>
       <path d="m25.752,63.013l0,23.986c0,3.977 3.225,7.2 7.201,7.2l0.147,0c0.388,1.271 1.556,2.201 2.952,2.201l7.529,0c1.397,0 2.564,-0.931 2.952,-2.201l7.11,0c0.388,1.271 1.555,2.201 2.953,2.201l7.528,0c1.397,0 2.565,-0.931 2.952,-2.201l0.311,0c3.977,0 7.201,-3.224 7.201,-7.2l0,-23.986l-48.836,0zm11.403,17.031c0,1.07 -0.868,1.938 -1.938,1.938s-1.938,-0.867 -1.938,-1.938l0,-10.853c0,-1.07 0.867,-1.938 1.938,-1.938s1.938,0.868 1.938,1.938l0,10.853z" fill="#ffffff" data-fill-palette-color="accent" id="svg_90" stroke="null"/>
      </g>
     </svg>
    </g>
   </svg>
  </g>
  <path stroke="#ffffff" d="m321.72067,193.97442l0,42.12936l-48.53546,0l0,163.54341l-56.1474,0l0,-163.54341l-30.8999,0l0,-27.05624l30.8999,-15.07312l0,-15.14851q0,-35.12038 17.3341,-51.32397q17.25872,-16.20363 55.39373,-16.20363l0,0q29.01577,0 51.70082,8.66705l0,0l-14.39485,41.22499q-16.8819,-5.35095 -31.27672,-5.35095l0,0q-11.98315,0 -17.25875,7.08437q-5.35095,7.08437 -5.35095,18.16312l0,0l0,12.88753l48.53546,0z" fill="#1d4ed8" class="undefined-text-0" data-fill-palette-color="primary" id="svg_81"/>
 </g>

</svg>